<svg width="512" height="512" viewBox="0 0 512 512" fill="none" xmlns="http://www.w3.org/2000/svg">
  <defs>
    <linearGradient id="nodus-n" x1="162" y1="154" x2="350" y2="362" gradientUnits="userSpaceOnUse">
      <stop stop-color="#FFB067"/>
      <stop offset="0.5" stop-color="#E86A2F"/>
      <stop offset="1" stop-color="#B7410E"/>
    </linearGradient>
    <linearGradient id="nodus-highlight" x1="198" y1="168" x2="314" y2="302" gradientUnits="userSpaceOnUse">
      <stop stop-color="#FFD2A8" stop-opacity="0.95"/>
      <stop offset="1" stop-color="#FFD2A8" stop-opacity="0"/>
    </linearGradient>
    <mask id="gear-mask">
      <rect width="512" height="512" fill="black"/>
      <circle cx="256" cy="256" r="174" fill="white"/>
      <circle cx="256" cy="256" r="126" fill="black"/>
      <rect x="236" y="26" width="40" height="86" rx="12" fill="white"/>
      <rect x="236" y="400" width="40" height="86" rx="12" fill="white"/>
      <rect x="400" y="236" width="86" height="40" rx="12" fill="white"/>
      <rect x="26" y="236" width="86" height="40" rx="12" fill="white"/>
      <rect x="236" y="26" width="40" height="86" rx="12" transform="rotate(45 256 256)" fill="white"/>
      <rect x="236" y="26" width="40" height="86" rx="12" transform="rotate(90 256 256)" fill="white"/>
      <rect x="236" y="26" width="40" height="86" rx="12" transform="rotate(135 256 256)" fill="white"/>
      <rect x="236" y="26" width="40" height="86" rx="12" transform="rotate(180 256 256)" fill="white"/>
      <rect x="236" y="26" width="40" height="86" rx="12" transform="rotate(225 256 256)" fill="white"/>
      <rect x="236" y="26" width="40" height="86" rx="12" transform="rotate(270 256 256)" fill="white"/>
      <rect x="236" y="26" width="40" height="86" rx="12" transform="rotate(315 256 256)" fill="white"/>
    </mask>
  </defs>

  <rect width="512" height="512" fill="#231C1A" mask="url(#gear-mask)"/>

  <circle cx="256" cy="256" r="124" fill="#161110" fill-opacity="0.08"/>
  <circle cx="256" cy="256" r="120" stroke="#4B403C" stroke-width="8"/>

  <path d="M168 350V162H212L300 276V162H344V350H300L212 236V350H168Z" fill="url(#nodus-n)"/>
  <path d="M212 162L300 276V350H274V286L186 172V162H212Z" fill="#8F2F12" fill-opacity="0.35"/>
  <path d="M194 176H212L296 285V301L194 176Z" fill="url(#nodus-highlight)"/>

  <circle cx="256" cy="118" r="10" fill="#231C1A"/>
  <circle cx="394" cy="256" r="10" fill="#231C1A"/>
  <circle cx="256" cy="394" r="10" fill="#231C1A"/>
  <circle cx="118" cy="256" r="10" fill="#231C1A"/>
</svg>
